<svg xmlns="http://www.w3.org/2000/svg" width="333.49" height="431.23" viewBox="0 0 333.49 431.23">
  <defs>
    <style>
      .cls-1 {
        fill: #f74a57;
      }

      .cls-2 {
        fill: #e03d51;
      }

      .cls-3 {
        opacity: 0.1;
      }
    </style>
  </defs>
  <g id="Layer_2" data-name="Layer 2">
    <g id="Layer_1-2" data-name="Layer 1">
      <g>
        <g>
          <polygon class="cls-1" points="89.12 286.29 89.12 315.74 119.19 345.81 149.88 345.81 89.16 285.09 89.12 286.29"/>
          <polygon class="cls-2" points="89.12 344.61 89.12 315.16 119.19 285.09 149.88 285.09 89.16 345.81 89.12 344.61"/>
        </g>
        <path class="cls-1" d="M217.7,199.66h-7.32l-101.7,58.7h109a57.09,57.09,0,1,1,0,114.17h-109l101.7,58.7h7.32a115.79,115.79,0,1,0,0-231.57Z"/>
        <path class="cls-1" d="M222.43,115.79A115.78,115.78,0,0,0,108.68,0V0H0Q.39,186.26.77,372.51l63.75,58.72L62.81,59l43.83-.28A57.09,57.09,0,0,1,158.32,140h0L100.85,245.41l98.05-59.67h0A115.25,115.25,0,0,0,222.43,115.79Z"/>
        <path class="cls-3" d="M111.21,256.9l150.62-48.53s-16.91-8.82-51.45-8.71Z"/>
        <path class="cls-3" d="M111.21,373.27,261.83,421.8s-16.91,8.82-51.45,8.71Z"/>
        <path class="cls-3" d="M100.85,245.41l98.05-59.67s17.89-25,18.47-36.05Z"/>
        <path class="cls-3" d="M62.81,59,51.32,64.43l1.19,356.42,12,10.38Z"/>
      </g>
    </g>
  </g>
</svg>
