<svg id="Layer_1" data-name="Layer 1" xmlns="http://www.w3.org/2000/svg" xmlns:xlink="http://www.w3.org/1999/xlink" viewBox="0 0 512.23 512.12"><defs><style>.cls-1{fill:#4d4d4e;}.cls-2{fill:#f89820;}.cls-3{fill:url(#linear-gradient);}</style><linearGradient id="linear-gradient" x1="45.04" y1="421.1" x2="93.51" y2="437.87" gradientTransform="matrix(5.59, 0, 0, -5.59, -126.58, 2748.7)" gradientUnits="userSpaceOnUse"><stop offset="0.23" stop-color="#f89822"/><stop offset="1" stop-color="#c27818"/></linearGradient></defs><title>sublime-text</title><path class="cls-1" d="M492.17,511.79H19.6A19.91,19.91,0,0,1-.23,492V19.5A19.91,19.91,0,0,1,19.6-.33H492.17A19.91,19.91,0,0,1,512,19.5V492.07a19.89,19.89,0,0,1-19.83,19.72Z" transform="translate(0.23 0.33)"/><path class="cls-2" d="M117.85,154.33l268-85.07s19-10,14.45,8.48l.68,82s3.33,12-13.18,15L278.93,208.78Z" transform="translate(0.23 0.33)"/><path class="cls-2" d="M117.85,154.33s-10.55,2.52-7.45,20.52l-.57,79s-.92,10,18,14l265.64,85.52s8.94,3.55,7.91-7.45l.11-88s2.52-9.06-14-15L278.93,208.78Z" transform="translate(0.23 0.33)"/><path class="cls-3" d="M234.9,302.22l-113,34.51s-13.64.46-12,26-.12,77-.12,77,1.15,9.52,14.22,4l268-85.53s9.51-2.41,1.49-5S234.9,302.22,234.9,302.22Z" transform="translate(0.23 0.33)"/></svg>